<svg width="24" height="20" viewBox="0 0 24 20" fill="none" xmlns="http://www.w3.org/2000/svg">
<path d="M8.33317 16.6663C7.87484 16.6663 7.48262 16.5033 7.1565 16.1772C6.83039 15.8511 6.66706 15.4586 6.6665 14.9997V4.99967C6.6665 4.54134 6.82984 4.14912 7.1565 3.82301C7.48317 3.4969 7.87539 3.33356 8.33317 3.33301H21.6665C22.1248 3.33301 22.5173 3.49634 22.844 3.82301C23.1707 4.14967 23.3337 4.5419 23.3332 4.99967V14.9997C23.3332 15.458 23.1701 15.8505 22.844 16.1772C22.5179 16.5038 22.1254 16.6669 21.6665 16.6663H8.33317ZM14.9998 10.833L21.6665 6.66634V4.99967L14.9998 9.16634L8.33317 4.99967V6.66634L14.9998 10.833Z" fill="#54844B"/>
</svg>
