<svg width="16" height="20" viewBox="0 0 16 20" fill="none" xmlns="http://www.w3.org/2000/svg">
<path d="M15.0667 20C13.2148 20 11.3852 19.4956 9.57778 18.4867C7.77037 17.4778 6.12593 16.047 4.64444 14.1944C3.16296 12.3419 2.01867 10.2863 1.21156 8.02778C0.404444 5.76926 0.000592593 3.48222 0 1.16667C0 0.833334 0.0888888 0.555556 0.266667 0.333333C0.444444 0.111111 0.666667 0 0.933334 0H4.53333C4.74074 0 4.92593 0.0881481 5.08889 0.264444C5.25185 0.440741 5.34815 0.648889 5.37778 0.888889L5.95556 4.77778C5.98519 5.07407 5.97778 5.32407 5.93333 5.52778C5.88889 5.73148 5.80741 5.90741 5.68889 6.05556L3.53333 8.77778C3.82963 9.46296 4.18133 10.1248 4.58844 10.7633C4.99556 11.4019 5.44385 12.0178 5.93333 12.6111C6.39259 13.1852 6.87407 13.7178 7.37778 14.2089C7.88148 14.7 8.41481 15.1489 8.97778 15.5556L11.0667 12.9444C11.2 12.7778 11.3742 12.653 11.5893 12.57C11.8044 12.487 12.0154 12.4637 12.2222 12.5L15.2889 13.2778C15.4963 13.3519 15.6667 13.4863 15.8 13.6811C15.9333 13.8759 16 14.0933 16 14.3333V18.8333C16 19.1667 15.9111 19.4444 15.7333 19.6667C15.5556 19.8889 15.3333 20 15.0667 20Z" fill="#54844B"/>
</svg>
