<svg width="30" height="30" viewBox="0 0 30 30" fill="none" xmlns="http://www.w3.org/2000/svg">
<path d="M29.9987 15.0006C29.9987 6.71528 23.2835 0 14.9994 0C6.71528 0 0 6.71528 0 15.0006C0 22.4859 5.48523 28.6912 12.6555 29.8162V19.3358H8.84787V14.9994H12.6555V11.6955C12.6555 7.93533 14.8956 5.85899 18.3208 5.85899C19.9621 5.85899 21.6784 6.15151 21.6784 6.15151V9.84291H19.7883C17.9257 9.84291 17.3445 10.9992 17.3445 12.1855V15.0006H21.5046L20.8396 19.3371H17.3445V29.8175C24.5148 28.6924 30 22.4872 30 15.0006H29.9987Z" fill="#54844B"/>
</svg>
